<svg width="252" height="256" xmlns="http://www.w3.org/2000/svg"><g fill="none" fill-rule="evenodd"><path d="M252 142.418c0 46.415-39.03 84.044-87.176 84.044-48.148 0-87.177-37.629-87.177-84.044 0-46.416 39.03-84.044 87.177-84.044 48.147 0 87.176 37.628 87.176 84.044" fill="#F4F9FD" opacity=".2"/><path d="M142.79 179.076a2.428 2.428 0 0 1-1.552-.559 2.426 2.426 0 0 1-.321-3.422L225.34 73.426a2.438 2.438 0 0 1 3.429-.32 2.426 2.426 0 0 1 .321 3.421l-84.423 101.67c-.482.58-1.177.88-1.877.88" fill="#377B00"/><path fill="#FBFFF2" d="M195.286 180.291l31.929-105.314-124.47 66.968 36.8 1.891 3.248 32.81 5.276-30.784z"/><path d="M148.068 143.431c.508 0 1.013.16 1.437.468l44.444 32.408 29.225-96.395-111.616 60.052 28.112 1.445a2.433 2.433 0 0 1 2.299 2.19l1.469 14.857 2.23-13.004a2.431 2.431 0 0 1 2.4-2.02m47.217 39.29c-.508 0-1.013-.16-1.435-.469l-44.045-32.114-4.612 26.917a2.428 2.428 0 0 1-2.487 2.019 2.432 2.432 0 0 1-2.338-2.191l-3.041-30.728-34.708-1.783a2.434 2.434 0 0 1-2.25-1.895 2.425 2.425 0 0 1 1.22-2.671l124.47-66.97a2.439 2.439 0 0 1 2.697.259 2.428 2.428 0 0 1 .79 2.585l-31.93 105.315a2.436 2.436 0 0 1-2.33 1.726" fill="#8C8F6B"/><path fill-opacity=".2" fill="#89BE00" d="M148.069 145.862l79.147-70.885-87.67 68.86 3.247 32.809z"/><path d="M148.068 143.431c.508 0 1.013.16 1.437.468l44.444 32.408 29.225-96.395-111.616 60.052 28.112 1.445a2.433 2.433 0 0 1 2.299 2.19l1.469 14.857 2.23-13.004a2.431 2.431 0 0 1 2.4-2.02m47.217 39.29c-.508 0-1.013-.16-1.435-.469l-44.045-32.114-4.612 26.917a2.428 2.428 0 0 1-2.487 2.019 2.432 2.432 0 0 1-2.338-2.191l-3.041-30.728-34.708-1.783a2.434 2.434 0 0 1-2.25-1.895 2.425 2.425 0 0 1 1.22-2.671l124.47-66.97a2.439 2.439 0 0 1 2.697.259 2.428 2.428 0 0 1 .79 2.585l-31.93 105.315a2.436 2.436 0 0 1-2.33 1.726" fill="#377B00"/><g fill="#377B00"><path d="M148.07 147.482c-.446 0-.889-.182-1.21-.538-.6-.666-.544-1.69.125-2.288l.604-.541a1.624 1.624 0 0 1 2.292.123c.599.666.544 1.69-.123 2.288l-.606.541a1.61 1.61 0 0 1-1.083.415M169.117 128.63c-.445 0-.888-.18-1.21-.537-.598-.666-.543-1.69.126-2.288l7.664-6.865a1.622 1.622 0 0 1 2.17 2.411l-7.667 6.865a1.61 1.61 0 0 1-1.083.415m-16.61 14.877a1.618 1.618 0 0 1-1.085-2.827l11.5-10.299a1.624 1.624 0 0 1 2.292.123c.6.666.544 1.69-.123 2.288l-11.5 10.3c-.31.279-.698.415-1.084.415M208.724 93.158c-.445 0-.888-.181-1.21-.538-.599-.666-.543-1.69.125-2.288l7.667-6.864a1.622 1.622 0 0 1 2.169 2.41l-7.668 6.865a1.61 1.61 0 0 1-1.083.415m-16.609 14.877a1.62 1.62 0 0 1-1.086-2.827l11.5-10.298a1.624 1.624 0 0 1 2.292.123c.6.666.544 1.69-.123 2.288l-11.5 10.3c-.31.278-.698.414-1.083.414m-5.11 4.577a1.619 1.619 0 0 1-1.086-2.826l1.277-1.143a1.626 1.626 0 0 1 2.294.123 1.619 1.619 0 0 1-.125 2.288l-1.278 1.143c-.31.28-.698.415-1.083.415M226.612 77.138a1.624 1.624 0 0 1-1.26-.598l-.049-.058a1.619 1.619 0 0 1 .27-2.277l.636-.5a1.625 1.625 0 0 1 2.249.228 1.62 1.62 0 0 1-.158 2.249l-.605.541a1.61 1.61 0 0 1-1.083.415"/><path d="M209.582 90.446c-.48 0-.956-.212-1.276-.619a1.617 1.617 0 0 1 .272-2.274l12.746-10.012a1.63 1.63 0 0 1 2.28.272 1.618 1.618 0 0 1-.27 2.275L210.586 90.1a1.619 1.619 0 0 1-1.004.346m-14.163 11.125a1.621 1.621 0 0 1-1.005-2.894l8.499-6.674a1.627 1.627 0 0 1 2.28.272c.555.702.433 1.721-.272 2.275l-8.497 6.674a1.627 1.627 0 0 1-1.005.347M182.673 111.582a1.619 1.619 0 0 1-1.005-2.894l1.417-1.113a1.63 1.63 0 0 1 2.28.272 1.619 1.619 0 0 1-.273 2.277l-1.416 1.111a1.619 1.619 0 0 1-1.003.347m-16.995 13.349c-.48 0-.956-.212-1.276-.619a1.617 1.617 0 0 1 .27-2.275l12.747-10.013a1.63 1.63 0 0 1 2.28.272 1.619 1.619 0 0 1-.271 2.277l-12.747 10.011a1.622 1.622 0 0 1-1.003.347m-14.164 11.123a1.619 1.619 0 0 1-1.005-2.894l8.498-6.674a1.632 1.632 0 0 1 2.28.273 1.62 1.62 0 0 1-.27 2.274l-8.5 6.676a1.627 1.627 0 0 1-1.003.345M139.546 145.456c-.481 0-.957-.212-1.277-.617a1.617 1.617 0 0 1 .272-2.275l.638-.502a1.629 1.629 0 0 1 2.28.269 1.618 1.618 0 0 1-.272 2.276l-.638.501a1.611 1.611 0 0 1-1.003.348"/></g><g fill="#377B00"><path d="M40.795 94.753c-1.903.009-2.5-1.3-2.39-2.672.108-1.37 1.271-2.484 2.786-2.293 1.515.19 2.276 2.038 2.204 2.794-.068.69-.698 2.163-2.6 2.171"/><path d="M13.197 87.138c-.58 0-1.164-.187-1.657-.578-3.303-2.616-5.955-5.786-7.885-9.428a2.723 2.723 0 0 1 1.104-3.668 2.672 2.672 0 0 1 3.636 1.113c1.576 2.974 3.75 5.572 6.462 7.72a2.728 2.728 0 0 1 .455 3.806 2.677 2.677 0 0 1-2.115 1.035m22.51 8.446c-.123 0-.246-.009-.372-.027-6.53-.912-12.224-2.51-16.922-4.757a2.72 2.72 0 0 1-1.281-3.607c.638-1.353 2.242-1.932 3.579-1.29 4.203 2.007 9.373 3.45 15.362 4.287 1.469.206 2.497 1.575 2.293 3.057a2.694 2.694 0 0 1-2.658 2.337M65.227 5.696c-.091 0-.183-.004-.274-.015-3.461-.35-7.139-.417-10.761-.217-1.497.053-2.745-1.051-2.825-2.526a2.676 2.676 0 0 1 2.53-2.819c3.983-.217 7.883-.137 11.596.24a2.674 2.674 0 0 1-.266 5.337M81.42 9.82c-.366 0-.738-.075-1.094-.234a40.49 40.49 0 0 0-1.614-.681 2.672 2.672 0 0 1-1.502-3.473 2.68 2.68 0 0 1 3.483-1.499c.615.243 1.223.5 1.823.767a2.675 2.675 0 0 1-1.096 5.12m-51.04.515c-1.082 0-2.101-.658-2.509-1.725a2.676 2.676 0 0 1 1.556-3.453c4.17-1.58 8.857-2.852 13.931-3.782a81.412 81.412 0 0 1 2.868-.474 2.676 2.676 0 1 1 .794 5.29c-.903.136-1.803.284-2.691.448-4.76.87-9.13 2.055-12.996 3.522a2.716 2.716 0 0 1-.953.174m-6.773 3.095a2.681 2.681 0 0 1-2.353-1.388 2.672 2.672 0 0 1 1.06-3.633 53.495 53.495 0 0 1 1.74-.91 2.682 2.682 0 0 1 3.6 1.192 2.67 2.67 0 0 1-1.195 3.59c-.527.265-1.05.537-1.564.818-.41.224-.851.331-1.288.331m74.27 10.953a2.687 2.687 0 0 1-2.332-1.352 31.187 31.187 0 0 0-2.069-3.165c-2.288-3.068-5.167-5.704-8.551-7.83a2.673 2.673 0 0 1-.84-3.693 2.688 2.688 0 0 1 3.697-.837c3.947 2.48 7.31 5.564 9.998 9.166a36.591 36.591 0 0 1 2.426 3.71 2.68 2.68 0 0 1-2.328 4.001M6.638 32.467a2.68 2.68 0 0 1-2.502-3.635c1.361-3.532 3.115-6.732 5.212-9.51.227-.3.458-.599.696-.892a2.687 2.687 0 0 1 3.772-.397 2.67 2.67 0 0 1 .399 3.762c-.197.244-.39.492-.58.744-1.8 2.383-3.31 5.146-4.492 8.212a2.681 2.681 0 0 1-2.505 1.716m96.331 9.656a2.679 2.679 0 0 1-2.671-2.469c-.29-3.705-.957-7.174-1.981-10.315a2.676 2.676 0 0 1 1.72-3.375 2.687 2.687 0 0 1 3.379 1.716c1.157 3.544 1.906 7.433 2.23 11.56a2.677 2.677 0 0 1-2.677 2.883M2.711 56.226l-.09-.001A2.678 2.678 0 0 1 .03 53.46l.018-.54c.227-6.589.817-11.853 1.857-16.57A2.676 2.676 0 0 1 5.1 34.31a2.676 2.676 0 0 1 2.044 3.188c-.97 4.393-1.52 9.35-1.736 15.603l-.018.54a2.679 2.679 0 0 1-2.679 2.585m99.443 2.59a2.678 2.678 0 0 1-2.651-3.095c.094-.595.182-1.19.264-1.785.202-1.465 1.55-2.467 3.021-2.287a2.677 2.677 0 0 1 2.292 3.015 95.1 95.1 0 0 1-.28 1.898 2.681 2.681 0 0 1-2.646 2.254M2.758 63.67a2.679 2.679 0 0 1-2.675-2.521 63.774 63.774 0 0 1-.082-1.94 2.676 2.676 0 0 1 2.605-2.75c.025-.002.05-.002.077-.002a2.68 2.68 0 0 1 2.68 2.601c.016.596.041 1.19.075 1.78a2.677 2.677 0 0 1-2.68 2.832m93.63 16.687a2.673 2.673 0 0 1-2.512-3.614 111.513 111.513 0 0 0 4.618-15.678c.311-1.445 1.736-2.355 3.186-2.053a2.676 2.676 0 0 1 2.058 3.179 117.016 117.016 0 0 1-4.84 16.43 2.681 2.681 0 0 1-2.51 1.736m-7.919 16.829c-.449 0-.906-.112-1.325-.351a2.672 2.672 0 0 1-1-3.65c1.8-3.15 3.468-6.42 4.957-9.718a2.685 2.685 0 0 1 3.545-1.344 2.673 2.673 0 0 1 1.345 3.538 119.652 119.652 0 0 1-5.189 10.175 2.681 2.681 0 0 1-2.333 1.35m-9.333 13.903a2.68 2.68 0 0 1-1.646-.563 2.671 2.671 0 0 1-.467-3.757c.374-.478.744-.962 1.11-1.445a2.685 2.685 0 0 1 3.757-.523 2.673 2.673 0 0 1 .524 3.748c-.383.505-.77 1.01-1.16 1.51a2.678 2.678 0 0 1-2.118 1.03m-15.384 16.169c-.74 0-1.479-.303-2.008-.9a2.67 2.67 0 0 1 .23-3.78 151.789 151.789 0 0 0 4.254-3.888 110.407 110.407 0 0 0 7.33-7.71 2.686 2.686 0 0 1 3.782-.28 2.672 2.672 0 0 1 .282 3.775 117.017 117.017 0 0 1-7.686 8.083 160.32 160.32 0 0 1-4.407 4.03c-.51.449-1.144.67-1.777.67m-14.085 12.2a2.684 2.684 0 0 1-1.978-.867 2.67 2.67 0 0 1 .165-3.78c2.694-2.464 5.519-4.865 8.253-7.186l.255-.219a2.688 2.688 0 0 1 3.782.303 2.674 2.674 0 0 1-.304 3.775l-.256.216c-2.698 2.29-5.485 4.657-8.104 7.055a2.682 2.682 0 0 1-1.813.703m-11.31 12.331c-.54 0-1.084-.16-1.556-.497a2.67 2.67 0 0 1-.626-3.732c.38-.53.767-1.05 1.162-1.568a2.684 2.684 0 0 1 3.76-.496 2.67 2.67 0 0 1 .5 3.751c-.358.466-.712.94-1.056 1.422a2.68 2.68 0 0 1-2.184 1.12m-9.024 20.28a2.678 2.678 0 0 1-2.609-3.305c1.452-5.997 3.566-11.472 6.285-16.265a2.684 2.684 0 0 1 3.656-1.011 2.67 2.67 0 0 1 1.014 3.644c-2.474 4.365-4.407 9.372-5.74 14.89a2.681 2.681 0 0 1-2.606 2.048m-2.405 18.423c-.035 0-.073 0-.109-.002a2.68 2.68 0 0 1-2.572-2.78c.159-4.012.506-7.846 1.026-11.398a2.682 2.682 0 0 1 3.041-2.261 2.679 2.679 0 0 1 2.267 3.034c-.495 3.368-.822 7.014-.974 10.837a2.682 2.682 0 0 1-2.679 2.57m.487 16.724a2.68 2.68 0 0 1-2.66-2.371 84.415 84.415 0 0 1-.197-1.912 2.68 2.68 0 0 1 2.426-2.91c1.455-.143 2.78.951 2.914 2.423.056.597.116 1.195.184 1.789a2.676 2.676 0 0 1-2.667 2.98m106.071 14.955c-.398 0-.802-.088-1.181-.277a2.673 2.673 0 0 1-1.225-3.582 60.94 60.94 0 0 0 3.874-9.96 2.677 2.677 0 0 1 3.322-1.824 2.674 2.674 0 0 1 1.83 3.313 66.573 66.573 0 0 1-4.211 10.835 2.685 2.685 0 0 1-2.409 1.495m-99.674 6.291c-.94 0-1.852-.492-2.344-1.372a49.086 49.086 0 0 1-2.997-6.39c-1.2-3.135-2.16-6.546-2.85-10.133a2.674 2.674 0 0 1 2.128-3.133 2.681 2.681 0 0 1 3.14 2.121c.63 3.283 1.503 6.39 2.594 9.237a43.744 43.744 0 0 0 2.667 5.689 2.672 2.672 0 0 1-1.033 3.64c-.413.23-.862.341-1.305.341m85.209 12.945a2.677 2.677 0 0 1-1.803-4.657 61.325 61.325 0 0 0 10.347-12.227 2.685 2.685 0 0 1 3.704-.802 2.67 2.67 0 0 1 .807 3.698 66.706 66.706 0 0 1-11.253 13.293 2.674 2.674 0 0 1-1.802.695m-73.31 1.247a2.67 2.67 0 0 1-1.717-.622 55.335 55.335 0 0 1-8.174-8.404 2.67 2.67 0 0 1 .464-3.755 2.686 2.686 0 0 1 3.764.464 50.172 50.172 0 0 0 7.384 7.588 2.67 2.67 0 0 1 .34 3.768 2.683 2.683 0 0 1-2.062.961m67.498 3.406a2.682 2.682 0 0 1-2.194-1.135 2.67 2.67 0 0 1 .648-3.728c.486-.34.965-.69 1.439-1.047a2.685 2.685 0 0 1 3.754.53 2.673 2.673 0 0 1-.529 3.747c-.52.39-1.044.773-1.575 1.146a2.687 2.687 0 0 1-1.543.487m-53.216 5.285a2.67 2.67 0 0 1-1.052-.214 66.543 66.543 0 0 1-1.78-.792 2.674 2.674 0 0 1-1.304-3.555 2.684 2.684 0 0 1 3.562-1.299c.54.248 1.082.49 1.629.723a2.676 2.676 0 0 1-1.055 5.137m29.185 4.239a2.675 2.675 0 0 1-.338-5.328 48.074 48.074 0 0 0 10.279-2.5 2.68 2.68 0 0 1 3.434 1.606 2.675 2.675 0 0 1-1.607 3.426 56.72 56.72 0 0 1-4.777 1.488 53.243 53.243 0 0 1-6.646 1.286 2.844 2.844 0 0 1-.345.022M81.74 256h-.038c-5.796-.08-11.612-1.035-17.282-2.838a2.676 2.676 0 1 1 1.629-5.098c5.167 1.643 10.46 2.513 15.726 2.584a2.681 2.681 0 0 1 2.646 2.714A2.679 2.679 0 0 1 81.74 256M139.37 197.818c-.024 0-.05 0-.073-.002-1.378-.043-2.461-1.357-2.421-2.93l.016-.909c.02-1.574 1.13-2.78 2.532-2.808 1.377.025 2.476 1.316 2.458 2.89l-.018.995c-.04 1.541-1.15 2.764-2.493 2.764"/></g></g></svg>